<?xml version="1.0" encoding="utf-8"?>
<!-- Generator: Adobe Illustrator 18.0.0, SVG Export Plug-In . SVG Version: 6.00 Build 0)  -->
<!DOCTYPE svg PUBLIC "-//W3C//DTD SVG 1.1//EN" "http://www.w3.org/Graphics/SVG/1.1/DTD/svg11.dtd">
<svg version="1.1" id="Layer_1" xmlns="http://www.w3.org/2000/svg" xmlns:xlink="http://www.w3.org/1999/xlink" x="0px" y="0px"
	 viewBox="0 211.2 566.9 151.9" enable-background="new 0 211.2 566.9 151.9" xml:space="preserve">
<g id="Layer_2" display="none">
	<polygon display="inline" fill="#3E454F" points="48.8,208.5 -3.1,357.7 18.5,357.7 62.8,231 74.7,265 96.9,264.8 77.3,208.5 	"/>
	<polygon display="inline" fill="#1F88C9" points="81.5,208.5 146,208.5 137.5,234.5 91,234.5 	"/>
	<polygon display="inline" fill="#1F88C9" points="62.8,243.3 23.5,357.7 102.6,357.7 93.7,331.3 54.5,331.3 67,295.9 115.7,296.1 
		124.4,270.1 72.2,269.9 	"/>
	<polygon display="inline" fill="#3E454F" points="69.6,301.4 60.9,326.7 95.9,326.7 107.2,357.7 129.2,357.7 109.2,300.5 	"/>
</g>
<g id="Layer_4">
	<polygon fill="#1F88C9" stroke="#1F88C9" stroke-miterlimit="10" points="143.5,328.5 156.1,356.3 57.1,356.3 49.8,338.9 
		82.8,268.2 96.1,295.9 80.6,328.2 	"/>
	<polygon fill="#1F88C9" stroke="#1F88C9" stroke-miterlimit="10" points="125.6,312.2 109.3,312.2 79.9,249.1 31,356.3 3.9,356.3 
		69.3,214.3 91.7,214.3 121.8,279.5 139.7,279.9 	"/>
	<polygon fill="#1F88C9" points="115.5,253.7 119.9,245.2 156.1,245.2 169.8,214.3 107.8,214.3 102.9,224.6 	"/>
</g>
<g id="Layer_3">
	<g>
		<path fill="#1F88C9" stroke="#1F88C9" stroke-miterlimit="10" d="M185.2,249.2v69.7h-8.7v-20.7H162v20.7h-8.7v-47.2
			c0-3.7,0.4-7.1,1.3-10.3c0.9-3.2,2-5.9,3.5-8.3c3-4.7,6.7-7.4,11.1-8c0.5-0.1,1-0.1,1.4-0.1c0.5,0,0.9,0,1.4,0
			c1.4,0,2.8,0.1,4,0.4s2.3,0.5,3.2,0.9c0.9,0.3,1.6,0.6,2.2,0.9c0.5,0.3,0.8,0.4,0.9,0.4L185.2,249.2z M176.5,284.1v-24.3
			c-0.6-0.2-1.3-0.4-2.1-0.5c-0.8-0.1-1.6-0.2-2.4-0.2c-0.3,0-0.7,0-1,0s-0.7,0.1-1,0.1c-1.2,0.1-2.3,0.6-3.3,1.3
			c-1,0.7-1.8,1.6-2.5,2.7c-0.7,1.1-1.2,2.4-1.6,3.8c-0.4,1.4-0.6,2.9-0.6,4.6V284h14.5V284.1z"/>
		<path fill="#1F88C9" stroke="#1F88C9" stroke-miterlimit="10" d="M205.1,266.6c2.3,0,4.4,0.7,6.4,2c2,1.4,3.7,3.3,5.2,5.6
			c1.5,2.4,2.6,5.2,3.5,8.5c0.9,3.2,1.3,6.7,1.3,10.3v25.8h-8.7v-25.7c0-1.7-0.2-3.3-0.6-4.8c-0.4-1.5-0.9-2.8-1.6-4
			c-0.7-1.1-1.5-2-2.4-2.6c-0.9-0.6-1.9-1-3-1c-1.8,0-3.2,0.3-4.2,0.8c-1,0.5-1.9,1.2-2.7,2.1v35.3h-8.7v-70c1-0.6,2.2-1.2,3.6-1.8
			c1.4-0.6,3.1-1,5.1-1.3v22.1C200.2,267.1,202.5,266.6,205.1,266.6z"/>
		<path fill="#1F88C9" stroke="#1F88C9" stroke-miterlimit="10" d="M271.6,274.9c1.3,2.3,2.3,5,3.1,8.1c0.7,3.1,1.1,6.5,1,10v25.8
			H267v-25.7c0-2-0.2-3.7-0.5-5.1c-0.3-1.4-0.8-2.6-1.4-3.6c-1.1-2-2.6-3.3-4.6-3.8c-0.3-0.1-0.6-0.1-0.8-0.2c-0.3,0-0.6,0-0.9,0
			c-0.6,0-1.3,0.1-1.9,0.2c-0.7,0.1-1.3,0.3-1.8,0.5V293v0.1v25.8h-8.7v-25.8c0-2-0.2-3.7-0.5-5.1c-0.3-1.4-0.8-2.6-1.4-3.6
			c-1.1-2-2.6-3.3-4.6-3.8c-0.2-0.1-0.5-0.1-0.8-0.2c-0.3,0-0.6,0-0.9,0c-0.6,0-1.3,0.1-1.9,0.2c-0.7,0.1-1.3,0.3-1.8,0.5v37.8h-8.7
			v-48.3l2.9-1.7c0,0,0.3-0.1,0.9-0.5c0.5-0.3,1.2-0.6,2.1-0.9c0.9-0.3,1.9-0.6,3-0.9s2.3-0.4,3.6-0.4c0.9,0,1.9,0.1,3,0.3
			c2.1,0.5,4.2,1.7,6.1,3.5l2-1.2c0,0,0.3-0.1,0.9-0.5c0.5-0.3,1.2-0.6,2.1-0.9c0.9-0.3,1.9-0.6,3-0.9c1.1-0.3,2.3-0.4,3.6-0.4
			c0.9,0,2,0.1,3,0.3c1.8,0.5,3.6,1.4,5.3,2.8C268.8,270.7,270.3,272.6,271.6,274.9z"/>
		<path fill="#1F88C9" stroke="#1F88C9" stroke-miterlimit="10" d="M296.7,305.7c1,0,2-0.1,3-0.3c1-0.2,2-0.5,3.2-1l1.7,13.8
			c-1.4,0.5-2.7,0.9-3.8,1.2c-1.2,0.3-2.5,0.4-4.1,0.4c-0.5,0-0.9,0-1.4-0.1c-0.5,0-0.9-0.1-1.4-0.1c-2.1-0.3-4.2-1.2-6.1-2.5
			c-1.9-1.3-3.6-3.2-5-5.5c-1.5-2.3-2.7-5.1-3.5-8.3c-0.9-3.2-1.3-6.6-1.3-10.3c0-3.6,0.4-7,1.2-10.2s1.9-6,3.4-8.4
			c1.4-2.4,3.1-4.3,5.1-5.8c2-1.4,4.1-2.1,6.3-2.1h0.6c2.1,0.1,4.1,0.9,5.8,2.3c1.7,1.4,3.2,3.2,4.4,5.3c1.2,2.1,2.1,4.5,2.8,7.1
			c0.7,2.6,1,5.3,1,8.1c0,1.3-0.1,2.5-0.2,3.6s-0.3,2-0.4,2.8c-0.2,0.9-0.4,1.8-0.6,2.5h-20c0.4,1.2,0.9,2.2,1.4,3.1
			c0.7,1.1,1.5,2.1,2.5,2.8s2.1,1.2,3.3,1.3c0.3,0.1,0.7,0.1,1,0.2C296,305.7,296.4,305.7,296.7,305.7z M288.9,284.1
			c-0.2,0.4-0.5,0.8-0.6,1.3c-0.2,0.5-0.4,1.2-0.6,2.2h12.1c-0.1-0.9-0.3-1.7-0.5-2.3s-0.5-1.2-0.7-1.7c-0.5-0.9-1.1-1.7-1.8-2.2
			c-0.7-0.5-1.5-0.8-2.4-0.9h-0.1h-0.1c0-0.1,0-0.1-0.1-0.1C292,280.5,290.3,281.8,288.9,284.1z"/>
		<path fill="#1F88C9" stroke="#1F88C9" stroke-miterlimit="10" d="M334.5,248.9c1-0.6,2.2-1.2,3.6-1.8c1.4-0.6,3.1-1,5.1-1.3v69.7
			l-2.9,1.6c-0.1,0.1-0.4,0.2-0.9,0.5s-1.3,0.5-2.2,0.9c-0.9,0.3-2,0.6-3.2,0.8c-1.2,0.3-2.6,0.4-4.1,0.4c-0.5,0-0.9,0-1.4-0.1
			c-0.5,0-0.9-0.1-1.4-0.1c-2.1-0.3-4.2-1.2-6.1-2.5c-1.9-1.3-3.6-3.2-5-5.5c-1.5-2.3-2.7-5.1-3.5-8.3c-0.9-3.2-1.3-6.6-1.3-10.3
			s0.4-7.1,1.3-10.3c0.8-3.2,2-6.1,3.5-8.5c1.5-2.4,3.2-4.3,5.2-5.6c2-1.4,4.1-2,6.4-2c2.6,0,4.9,0.5,6.9,1.4V248.9z M334.5,283.6
			c-0.7-0.9-1.6-1.6-2.7-2.1c-1-0.5-2.5-0.8-4.2-0.8c-1.1,0-2.1,0.3-3,1c-0.9,0.6-1.7,1.5-2.4,2.6c-0.7,1.1-1.2,2.5-1.6,4
			c-0.4,1.5-0.6,3.1-0.6,4.8s0.2,3.3,0.6,4.6c0.4,1.3,0.9,2.6,1.6,3.7c0.7,1.1,1.5,2.1,2.5,2.8s2.1,1.2,3.3,1.3
			c0.3,0.1,0.7,0.1,1,0.2c0.3,0,0.7,0,1,0c0.9,0,1.7-0.1,2.5-0.2c0.8-0.1,1.5-0.3,2.1-0.5L334.5,283.6L334.5,283.6z"/>
		<path fill="#1F88C9" stroke="#1F88C9" stroke-miterlimit="10" d="M373.7,261.8c-0.8,1.4-1.3,3-1.3,4.9c0,1.9,0.4,3.6,1.3,5
			c0.8,1.4,1.9,2,3,2h12.6v13.8h-12.6c-1.5,0.1-2.7,1-3.8,2.7c-1,1.7-1.6,3.7-1.6,6.1c0,2.4,0.5,4.5,1.6,6.2c1,1.7,2.3,2.5,3.8,2.5
			h12.6v13.8h-12.6c-1.9,0-3.7-0.6-5.4-1.8c-1.7-1.2-3.2-2.8-4.4-4.8c-1.3-2.1-2.2-4.5-3-7.2c-0.8-2.7-1.1-5.6-1.1-8.8
			s0.4-6.2,1.1-8.9c0.7-2.7,1.7-5.1,3-7.2c-0.9-1.8-1.7-3.9-2.2-6.1c-0.6-2.3-0.8-4.8-0.8-7.4c0-2.9,0.3-5.6,1-8.1
			c0.7-2.5,1.6-4.7,2.7-6.6s2.5-3.4,4.1-4.5c1.6-1.1,3.2-1.6,5-1.6h12.6v13.8h-12.6C375.5,259.8,374.5,260.5,373.7,261.8z"/>
		<path fill="#1F88C9" stroke="#1F88C9" stroke-miterlimit="10" d="M404.1,302.2c1.2,1.9,2.6,2.9,4.3,2.9v13.8c-2.1,0-4-0.6-5.8-1.9
			s-3.3-3-4.7-5.1c-1.3-2.2-2.4-4.7-3.2-7.6c-0.8-2.9-1.2-6-1.2-9.3v-46c1-0.6,2.2-1.2,3.6-1.7c1.4-0.5,3.1-1,5.1-1.3v49.2
			C402.4,298,402.9,300.3,404.1,302.2z"/>
		<path fill="#1F88C9" stroke="#1F88C9" stroke-miterlimit="10" d="M443.2,270.6v48.3h-8.7v-0.8c-1.9,1-4.2,1.5-6.8,1.5
			c-2.3,0-4.4-0.7-6.4-2.1c-2-1.4-3.7-3.3-5.2-5.7s-2.6-5.2-3.5-8.4c-0.9-3.2-1.3-6.6-1.3-10.3s0.4-7.1,1.3-10.2
			c0.9-3.2,2-5.9,3.5-8.3c3-4.7,6.7-7.4,11.1-8c0.5-0.1,1-0.1,1.4-0.2c0.5,0,0.9,0,1.4,0c1.4,0,2.8,0.1,4,0.4s2.3,0.6,3.2,0.9
			c0.9,0.3,1.6,0.6,2.2,0.9c0.5,0.3,0.8,0.4,0.9,0.4L443.2,270.6z M434.4,281.2c-0.6-0.2-1.3-0.4-2.1-0.5c-0.8-0.1-1.6-0.2-2.4-0.2
			c-0.3,0-0.7,0-1,0c-0.3,0-0.7,0.1-1,0.1c-1.2,0.1-2.3,0.6-3.3,1.3c-1,0.7-1.8,1.6-2.5,2.7c-0.7,1.1-1.2,2.4-1.6,3.8
			c-0.4,1.4-0.6,2.9-0.6,4.7c0,1.7,0.2,3.3,0.6,4.8c0.4,1.5,1,2.8,1.6,3.9c0.7,1.1,1.5,2,2.4,2.6c0.9,0.7,1.9,1,3,1
			c1.8,0,3.2-0.3,4.3-0.8c1-0.5,1.9-1.2,2.6-2.1V281.2z"/>
		<path fill="#1F88C9" stroke="#1F88C9" stroke-miterlimit="10" d="M473,302.6c-0.1,2.8-0.5,5.3-1.2,7.3c-0.7,2.1-1.7,3.9-3,5.3
			c-1.2,1.4-2.6,2.5-4.2,3.3c-1.6,0.7-3.2,1.1-5,1.1s-3.3-0.2-4.9-0.7c-1.5-0.5-2.9-1-4.1-1.5c-1.4-0.7-2.6-1.4-3.8-2.2l3.3-12
			c0.3,0.2,1.1,0.6,2.5,1.3c1.3,0.7,3,1.2,5,1.5c1.8,0.3,3.4,0.2,4.6-0.3c1.2-0.6,1.9-1.4,2.1-2.5c0.2-1.5-0.6-2.7-2.3-3.4
			c-0.9-0.3-1.9-0.7-3-1.1c-1.2-0.4-2.4-0.9-3.5-1.4c-1.4-0.5-2.7-1.3-3.8-2.3c-1.2-1-2.1-2.3-2.8-3.8c-0.7-1.5-1.2-3.3-1.5-5.3
			c-0.3-2-0.2-4.2,0.2-6.6c0.4-2.5,1.1-4.5,2-6.2c0.9-1.7,2.1-3,3.4-4s2.7-1.7,4.2-2c1.5-0.3,3-0.4,4.6-0.2s3,0.6,4.3,1.4
			c1.3,0.7,2.5,1.4,3.5,2.1c1.1,0.9,2.2,1.8,3.3,2.9l-4.3,11.1c-0.7-0.8-1.8-1.6-3.2-2.5c-1.4-0.9-2.8-1.5-4.3-1.9
			c-1.7-0.3-3-0.2-3.9,0.5c-0.9,0.7-1.3,1.5-1.4,2.4c0,0.7,0.1,1.2,0.4,1.5c0.3,0.4,0.6,0.6,1,0.8c0.2,0.1,0.5,0.2,1,0.4
			s1.1,0.4,1.8,0.7c0.7,0.3,1.3,0.5,2,0.8c0.7,0.3,1.3,0.5,1.8,0.7c1,0.5,2,1,3.1,1.7s2.1,1.6,3,2.7c0.9,1.1,1.7,2.5,2.2,4.3
			C472.6,298.3,473,300.1,473,302.6z"/>
		<path fill="#1F88C9" stroke="#1F88C9" stroke-miterlimit="10" d="M487.2,302.2c1.2,1.9,2.6,2.9,4.3,2.9v13.8c-2.1,0-4-0.6-5.8-1.9
			c-1.8-1.3-3.3-3-4.7-5.1c-1.3-2.2-2.4-4.7-3.2-7.6c-0.8-2.9-1.2-6-1.2-9.3v-46c1-0.6,2.2-1.2,3.6-1.7s3.1-1,5.1-1.3v49.2
			C485.4,298,486,300.3,487.2,302.2z"/>
		<path fill="#1F88C9" stroke="#1F88C9" stroke-miterlimit="10" d="M513,305.7c1,0,2-0.1,3-0.3c1-0.2,2-0.5,3.2-1l1.7,13.8
			c-1.4,0.5-2.7,0.9-3.8,1.2c-1.2,0.3-2.5,0.4-4.1,0.4c-0.5,0-0.9,0-1.4-0.1c-0.5,0-0.9-0.1-1.4-0.1c-2.1-0.3-4.2-1.2-6.1-2.5
			c-1.9-1.3-3.6-3.2-5-5.5c-1.5-2.3-2.7-5.1-3.5-8.3c-0.9-3.2-1.3-6.6-1.3-10.3c0-3.6,0.4-7,1.2-10.2s1.9-6,3.4-8.4
			c1.4-2.4,3.1-4.3,5.1-5.8c2-1.4,4.1-2.1,6.3-2.1h0.6c2.1,0.1,4.1,0.9,5.8,2.3c1.7,1.4,3.2,3.2,4.4,5.3c1.2,2.1,2.1,4.5,2.8,7.1
			c0.7,2.6,1,5.3,1,8.1c0,1.3-0.1,2.5-0.2,3.6s-0.3,2-0.4,2.8c-0.2,0.9-0.4,1.8-0.6,2.5h-20c0.4,1.2,0.9,2.2,1.4,3.1
			c0.7,1.1,1.5,2.1,2.5,2.8c1,0.7,2.1,1.2,3.3,1.3c0.3,0.1,0.7,0.1,1,0.2C512.4,305.7,512.7,305.7,513,305.7z M505.2,284.1
			c-0.2,0.4-0.5,0.8-0.6,1.3c-0.2,0.5-0.4,1.2-0.6,2.2h12.1c-0.1-0.9-0.3-1.7-0.5-2.3s-0.5-1.2-0.7-1.7c-0.5-0.9-1.1-1.7-1.8-2.2
			c-0.7-0.5-1.5-0.8-2.4-0.9h-0.1h-0.1c0-0.1,0-0.1-0.1-0.1C508.3,280.5,506.6,281.8,505.2,284.1z"/>
		<path fill="#1F88C9" stroke="#1F88C9" stroke-miterlimit="10" d="M550.6,268.1c1.4-0.6,3.1-1,5.1-1.3v53.7c0,3.6-0.4,7-1.3,10.2
			c-0.9,3.2-2,5.9-3.5,8.3c-1.5,2.3-3.2,4.2-5.1,5.5c-1.9,1.3-3.9,2.2-6,2.5c-0.5,0.1-1,0.2-1.4,0.2c-0.5,0-0.9,0-1.4,0
			c-0.8,0-1.6,0-2.4-0.1c-0.8-0.1-1.5-0.2-2.2-0.3v-14.3c0.6,0.1,1.3,0.3,2.1,0.4c0.8,0.1,1.6,0.2,2.5,0.2c0.3,0,0.7,0,1,0
			c0.3,0,0.7,0,1-0.1c1.2-0.2,2.3-0.7,3.3-1.3c1-0.7,1.8-1.6,2.5-2.8c0.7-1.1,1.2-2.4,1.6-3.7c0.4-1.3,0.6-2.9,0.6-4.6v-1.3
			c-0.5,0.1-0.9,0.1-1.4,0.2c-0.5,0.1-1,0.1-1.5,0.1c-0.5,0-0.9,0-1.4-0.1c-0.5-0.1-1-0.2-1.5-0.3c-1.8-0.4-3.6-1.3-5.3-2.7
			c-1.7-1.4-3.2-3.3-4.5-5.6c-1.3-2.3-2.3-5-3-8.1c-0.7-3.1-1.1-6.4-1.1-10v-15V270c1-0.6,2.2-1.2,3.6-1.8c1.4-0.6,3.1-1,5.1-1.3
			v25.8c0,2,0.2,3.7,0.6,5c0.3,1.4,0.8,2.6,1.4,3.7c1.1,2,2.6,3.3,4.6,3.8c0.3,0.1,0.6,0.1,0.8,0.2c0.3,0,0.5,0,0.8,0
			c1,0,2-0.2,3-0.5v-35C548,269.3,549.2,268.7,550.6,268.1z"/>
	</g>
</g>
<g>
	<path fill="#1F88C9" d="M168.5,346.5c1.3-0.1,2.3-0.4,3.2-0.9c0.8-0.5,1.3-1.2,1.4-2.1c0-0.4,0-0.8-0.2-1.1
		c-0.2-0.3-0.4-0.6-0.7-0.8c-0.3-0.2-0.7-0.4-1.1-0.5c-0.4-0.1-0.8-0.2-1.2-0.3c-0.4-0.1-0.8-0.2-1.4-0.3c-0.5-0.1-1.1-0.3-1.7-0.4
		c-0.6-0.1-1.2-0.3-1.7-0.4c-0.6-0.1-1-0.2-1.4-0.3c-1-0.2-1.9-0.6-2.8-1c-0.9-0.4-1.6-1-2.3-1.6c-0.6-0.6-1.1-1.4-1.5-2.2
		c-0.4-0.8-0.5-1.7-0.4-2.6c0.1-1,0.4-1.9,0.9-2.8c0.5-0.9,1.2-1.6,2-2.2s1.8-1.1,2.9-1.5c1.1-0.4,2.3-0.6,3.7-0.6
		c1.7,0,3.5,0.1,5.2,0.4c1.7,0.3,3.2,0.7,4.5,1.1v4.7c-0.9-0.2-1.8-0.4-2.7-0.6c-0.9-0.2-1.8-0.3-2.7-0.4c-0.9-0.1-1.7-0.2-2.4-0.2
		c-0.7,0-1.4,0-1.9,0.1c-0.9,0.2-1.5,0.5-1.9,0.9s-0.6,0.9-0.7,1.5c0,0.6,0.3,1.1,0.8,1.5c0.5,0.4,1.4,0.7,2.7,1
		c0.6,0.1,1.2,0.3,1.6,0.4c0.4,0.1,0.8,0.2,1.1,0.3c0.3,0.1,0.7,0.1,1,0.2s0.7,0.2,1.2,0.3c0.9,0.2,1.9,0.5,2.8,0.9
		c1,0.4,1.9,0.9,2.6,1.5c0.8,0.6,1.4,1.3,1.8,2.2c0.4,0.9,0.6,1.9,0.5,3.1c-0.1,1-0.4,2-0.9,3c-0.5,1-1.3,1.8-2.2,2.6
		c-0.9,0.8-2.1,1.4-3.4,1.9c-1.3,0.5-2.9,0.7-4.6,0.7c-2.2,0-4.2-0.1-6-0.4c-1.8-0.3-3.4-0.6-4.7-1.1v-4.9c0.9,0.2,1.8,0.4,2.8,0.6
		c1,0.2,2,0.3,3,0.4c1,0.1,1.9,0.2,2.7,0.2S167.9,346.6,168.5,346.5z"/>
	<path fill="#1F88C9" d="M201.8,335.2c1.1,0.9,1.9,1.9,2.5,3c0.6,1.2,0.9,2.4,0.9,3.7c0,1.3-0.3,2.6-0.9,3.7c-0.6,1.2-1.5,2.2-2.6,3
		c-1.1,0.9-2.4,1.5-3.8,2.1c-1.5,0.5-3,0.8-4.7,0.8c-1.7,0-3.3-0.3-4.7-0.8c-1.5-0.5-2.7-1.2-3.8-2.1c-1.1-0.9-2-1.9-2.6-3
		c-0.6-1.2-0.9-2.4-0.9-3.7c0-1.3,0.3-2.6,1-3.7s1.5-2.2,2.6-3c1.1-0.9,2.4-1.5,3.8-2c1.5-0.5,3-0.7,4.7-0.7c1.7,0,3.3,0.3,4.7,0.8
		C199.4,333.7,200.7,334.4,201.8,335.2z M193.2,346.4c0.8,0,1.5-0.1,2.2-0.3c0.7-0.2,1.3-0.5,1.8-1c0.5-0.4,0.9-0.9,1.2-1.4
		c0.3-0.5,0.4-1.1,0.4-1.7s-0.1-1.2-0.4-1.8c-0.3-0.6-0.7-1-1.2-1.4c-0.5-0.4-1.1-0.7-1.8-0.9c-0.7-0.2-1.4-0.3-2.2-0.3
		c-0.8,0-1.5,0.1-2.2,0.3c-0.7,0.2-1.3,0.5-1.8,1c-0.5,0.4-0.9,0.9-1.2,1.4c-0.3,0.5-0.5,1.1-0.5,1.7s0.1,1.2,0.4,1.7
		c0.3,0.5,0.7,1,1.2,1.4c0.5,0.4,1.1,0.7,1.8,1C191.6,346.3,192.4,346.4,193.2,346.4z"/>
	<path fill="#1F88C9" d="M215.4,331.6c-0.5,0.4-0.9,0.9-1.2,1.3c-0.3,0.5-0.4,1-0.4,1.7v0.4h6.4v5.1h-6.4v11.3h-6.5v-16.7
		c0-1.3,0.3-2.5,0.9-3.7c0.7-1.1,1.5-2.1,2.6-3c1.1-0.8,2.3-1.5,3.7-2c1.4-0.5,2.9-0.8,4.5-0.9c0.4,0,0.7-0.1,1.1-0.1
		c0.4,0,0.7,0,1,0v5.1c-0.2,0-0.5,0-0.8,0c-0.3,0-0.5,0-0.8,0C217.9,330.2,216.5,330.7,215.4,331.6z"/>
	<path fill="#1F88C9" d="M235.2,332.4c0.9,0,1.6,0.1,2.1,0.2c0.5,0.1,0.7,0.1,0.9,0.1l-1.2,3.4l-0.5,1.5l0,0c-0.1,0-0.2,0-0.2,0
		c-0.3,0-0.9-0.1-1.6-0.1c-0.2,0-0.5,0-0.7-0.1s-0.5,0-0.7,0c-0.7,0-1.3,0-1.9,0.1c-0.6,0-1.1,0.1-1.6,0.2v13.6h-6.5v-21.5
		c0.7-0.2,1.6-0.4,2.7-0.6c1.1-0.2,2.3-0.4,3.8-0.5v3.9c0.5,0,1.1-0.1,1.7-0.1c0.6,0,1.2-0.1,1.9-0.1c0.3,0,0.6,0,0.9,0
		C234.5,332.4,234.8,332.4,235.2,332.4z"/>
	<path fill="#1F88C9" d="M272,332.5l-6.6,18.7H260l-3.8-9.7l-3.8,9.7h-5.4l-7.3-18.7h6.1l3.9,10.1l3.9-10.1h6l-0.8,2.2l3.1,7.9
		l3.9-10.1H272z"/>
	<path fill="#1F88C9" d="M296.6,333.9v17.4h-6.5V351c-1.4,0.4-3.1,0.5-5.1,0.5c-1.7,0-3.3-0.3-4.7-0.8s-2.8-1.2-3.9-2.1
		c-1.1-0.9-2-1.9-2.6-3s-1-2.4-1-3.7c0-1.3,0.3-2.5,1-3.7s1.5-2.1,2.6-3c2.3-1.7,5-2.7,8.2-2.9c0.4,0,0.7,0,1.1-0.1c0.4,0,0.7,0,1,0
		c1.1,0,2.1,0,3,0.1c0.9,0.1,1.7,0.2,2.4,0.3c0.7,0.1,1.2,0.2,1.6,0.3s0.6,0.1,0.7,0.1L296.6,333.9z M290.1,337.7
		c-0.5-0.1-1-0.1-1.6-0.2s-1.2-0.1-1.8-0.1c-0.2,0-0.5,0-0.8,0c-0.3,0-0.5,0-0.8,0.1c-0.9,0-1.7,0.2-2.4,0.5c-0.7,0.3-1.4,0.6-1.9,1
		c-0.5,0.4-0.9,0.9-1.2,1.3c-0.3,0.5-0.4,1-0.5,1.7c0,0.6,0.2,1.2,0.5,1.7c0.3,0.5,0.7,1,1.2,1.4c0.5,0.4,1.1,0.7,1.8,1
		s1.4,0.4,2.2,0.4c1.3,0,2.4-0.1,3.2-0.3c0.8-0.2,1.4-0.4,1.9-0.8V337.7z"/>
	<path fill="#1F88C9" d="M299.8,351.3v-17.4l2.2-0.6c0.1,0,0.3,0,0.7-0.1s0.9-0.2,1.6-0.3c0.7-0.1,1.5-0.2,2.4-0.3
		c0.9-0.1,1.9-0.1,3-0.1c0.3,0,0.6,0,0.9,0c0.3,0,0.6,0,1,0.1c0.9,0,1.6,0.1,2.1,0.2c0.5,0.1,0.7,0.1,0.9,0.1l-1.2,3.4l-0.5,1.5
		c0,0,0,0,0,0c-0.1,0-0.2,0-0.2,0c-0.3,0-0.9-0.1-1.6-0.1c-0.2,0-0.5,0-0.7-0.1s-0.5,0-0.7,0c-0.7,0-1.3,0-1.9,0.1
		c-0.6,0-1.1,0.1-1.6,0.2v13.6H299.8z"/>
	<path fill="#1F88C9" d="M329.6,346.5c0.8,0,1.5,0,2.2-0.1c0.7-0.1,1.5-0.2,2.4-0.3l1.3,5c-1,0.2-2,0.3-2.9,0.4
		c-0.9,0.1-1.9,0.1-3,0.1c-0.3,0-0.7,0-1,0c-0.4,0-0.7,0-1-0.1c-1.6-0.1-3.1-0.4-4.5-0.9c-1.4-0.5-2.7-1.1-3.7-2
		c-1.1-0.8-2-1.8-2.6-3s-1-2.4-0.9-3.7c0-1.3,0.3-2.5,0.9-3.7s1.4-2.2,2.5-3c1.1-0.9,2.3-1.6,3.8-2.1s3-0.8,4.7-0.8h0.5
		c1.6,0,3,0.3,4.3,0.8s2.4,1.1,3.3,1.9c0.9,0.8,1.6,1.6,2.1,2.5c0.5,0.9,0.8,1.9,0.8,2.9c0,0.5,0,0.9-0.1,1.3
		c-0.1,0.4-0.2,0.7-0.3,1c-0.1,0.3-0.3,0.6-0.5,0.9h-14.9c0.3,0.4,0.7,0.8,1.1,1.1c0.5,0.4,1.1,0.7,1.9,1c0.7,0.3,1.5,0.4,2.4,0.5
		c0.2,0,0.5,0,0.8,0.1C329.1,346.5,329.3,346.5,329.6,346.5z M323.7,338.7c-0.2,0.1-0.3,0.3-0.5,0.5c-0.1,0.2-0.3,0.4-0.4,0.8h9
		c-0.1-0.3-0.2-0.6-0.4-0.8c-0.2-0.2-0.3-0.4-0.5-0.6c-0.4-0.3-0.9-0.6-1.4-0.8c-0.5-0.2-1.1-0.3-1.8-0.3h0h0c0,0,0,0-0.1,0
		C326,337.5,324.8,337.9,323.7,338.7z"/>
	<path fill="#1F88C9" d="M360,330.7c-0.6,0.5-0.9,1.1-0.9,1.8s0.3,1.3,0.9,1.8c0.6,0.5,1.4,0.7,2.3,0.7h9.4v5h-9.4
		c-1.1,0-2,0.3-2.8,1c-0.8,0.6-1.2,1.4-1.2,2.2c0,0.9,0.4,1.6,1.2,2.2c0.8,0.6,1.7,0.9,2.8,0.9h9.4v5h-9.4c-1.4,0-2.8-0.2-4-0.6
		s-2.3-1-3.3-1.7c-0.9-0.7-1.7-1.6-2.2-2.6c-0.5-1-0.8-2-0.8-3.1c0-1.2,0.3-2.2,0.8-3.2c0.5-1,1.3-1.8,2.3-2.6
		c-0.7-0.6-1.3-1.4-1.7-2.2s-0.6-1.7-0.6-2.6c0-1,0.3-2,0.8-2.9c0.5-0.9,1.2-1.7,2-2.4c0.9-0.7,1.9-1.2,3-1.6
		c1.2-0.4,2.4-0.6,3.7-0.6h9.4v5h-9.4C361.4,330,360.6,330.2,360,330.7z"/>
	<path fill="#1F88C9" d="M392.1,351.3V342c0-0.6-0.1-1.2-0.4-1.7s-0.7-0.9-1.2-1.3c-0.5-0.4-1.1-0.7-1.9-1c-0.7-0.3-1.5-0.4-2.4-0.5
		c-0.2,0-0.5,0-0.8-0.1c-0.3,0-0.5,0-0.8,0c-0.6,0-1.2,0-1.8,0.1c-0.6,0-1.1,0.1-1.6,0.2v13.6h-6.5v-17.4l2.2-0.6c0,0,0.3,0,0.7-0.1
		c0.4-0.1,1-0.2,1.6-0.3c0.7-0.1,1.5-0.2,2.4-0.3c0.9-0.1,1.9-0.1,3-0.1c0.3,0,0.7,0,1,0c0.3,0,0.7,0,1.1,0.1c1.6,0.1,3,0.4,4.5,0.9
		c1.4,0.5,2.7,1.1,3.7,2c1.1,0.8,2,1.8,2.6,3s1,2.4,0.9,3.7c0,0.3,0,0.8,0,1.4s0,1.2,0,1.9s0,1.4,0,2.1c0,0.7,0,1.4,0,1.9
		c0,0.6,0,1.2,0,1.9H392.1z"/>
	<path fill="#1F88C9" d="M416.4,355.3c0-0.3-0.4-0.6-1.1-0.9s-1.5-0.5-2.4-0.7c-0.9-0.2-2-0.3-3.2-0.5c-1.2-0.1-2.5-0.4-3.9-0.7
		c-1.5-0.4-2.6-1-3.5-1.7c-0.8-0.8-1.2-1.7-1.2-2.8c0-0.5,0.1-0.9,0.3-1.4c0.2-0.4,0.5-0.8,0.8-1.1c0.3-0.4,0.7-0.7,1.1-1
		c-0.7-0.6-1.2-1.3-1.6-2.1c-0.4-0.8-0.6-1.6-0.6-2.5c0-1.1,0.4-2.2,1-3.2c0.6-1,1.4-1.8,2.4-2.4c2-1.3,4.6-2,7.6-2h1.1
		c1.1,0,2.1,0,3,0.1c0.9,0.1,1.7,0.2,2.4,0.3c0.7,0.1,1.2,0.2,1.6,0.3s0.6,0.1,0.7,0.1l2.2,0.6v6c0,1.1-0.3,2.1-0.9,3.1
		c-0.6,1-1.4,1.8-2.4,2.4c-2,1.3-4.6,2-7.6,2c-0.3,0-0.6,0-1-0.1c-0.4,0-0.7,0-1,0c-0.3,0-0.6,0.1-0.9,0.1c-0.3,0.1-0.5,0.2-0.6,0.4
		c0.4,0.1,0.9,0.3,1.5,0.4c0.6,0.1,1.2,0.2,1.9,0.3c1.6,0.2,3.1,0.5,4.3,0.8s2.4,0.8,3.3,1.3c1,0.6,1.8,1.2,2.3,2.1
		c0.6,0.8,0.9,1.7,0.8,2.6c0,0.1,0,0.2,0,0.4c0,0.1,0,0.3-0.1,0.4c-0.1,0.5-0.2,1-0.5,1.5c-0.3,0.5-0.6,0.9-1,1.3
		c-0.4,0.4-0.8,0.7-1.3,1c-0.5,0.3-1,0.5-1.5,0.7c-1,0.4-2.1,0.6-3.2,0.8c-1.1,0.1-2.2,0.2-3.4,0.2h-0.9c-1.7-0.1-3.5-0.4-5.2-0.9
		c-1.8-0.5-3.4-1.2-4.9-2.1l3.8-4.1c0.6,0.4,1.3,0.7,2.1,0.9c0.6,0.2,1.4,0.5,2.2,0.7c0.8,0.2,1.7,0.3,2.7,0.3c0.3,0,0.7,0,1.3,0
		c0.5,0,1.1-0.1,1.6-0.1c0.5-0.1,0.9-0.2,1.3-0.3C416.2,355.8,416.4,355.6,416.4,355.3z M408.2,338.3c-0.4,0.3-0.7,0.5-0.8,0.8
		c-0.1,0.3-0.2,0.5-0.2,0.8c0,0.3,0,0.5,0.2,0.8c0.2,0.3,0.4,0.5,0.8,0.8c0.4,0.2,1,0.5,1.6,0.6c0.7,0.2,1.4,0.3,2.4,0.3
		c0.9,0,1.7-0.1,2.4-0.3c0.7-0.2,1.2-0.4,1.5-0.6c0.7-0.5,1-1,1-1.5v-2.1c-0.8-0.1-1.7-0.2-2.6-0.3c-0.9-0.1-1.7-0.1-2.4-0.1
		c-0.9,0-1.7,0.1-2.4,0.3C409.2,337.8,408.6,338,408.2,338.3z"/>
	<path fill="#1F88C9" d="M429.4,330.7c-1,0-1.9-0.3-2.6-0.8c-0.7-0.6-1.1-1.2-1.1-2c0-0.8,0.4-1.5,1.1-2.1c0.7-0.6,1.6-0.8,2.6-0.8
		s1.9,0.3,2.6,0.8c0.7,0.6,1.1,1.2,1.1,2.1c0,0.8-0.4,1.5-1.1,2C431.2,330.5,430.4,330.7,429.4,330.7z M426.1,333.6
		c0.7-0.2,1.6-0.4,2.7-0.6s2.3-0.4,3.8-0.5v18.7h-6.5V333.6z"/>
	<path fill="#1F88C9" d="M453.5,351.3V342c0-0.6-0.1-1.2-0.4-1.7s-0.7-0.9-1.2-1.3c-0.5-0.4-1.1-0.7-1.9-1c-0.7-0.3-1.5-0.4-2.4-0.5
		c-0.2,0-0.5,0-0.8-0.1c-0.3,0-0.5,0-0.8,0c-0.6,0-1.2,0-1.8,0.1c-0.6,0-1.1,0.1-1.6,0.2v13.6h-6.5v-17.4l2.2-0.6c0,0,0.3,0,0.7-0.1
		c0.4-0.1,1-0.2,1.6-0.3c0.7-0.1,1.5-0.2,2.4-0.3c0.9-0.1,1.9-0.1,3-0.1c0.3,0,0.7,0,1,0c0.3,0,0.7,0,1.1,0.1c1.6,0.1,3,0.4,4.5,0.9
		c1.4,0.5,2.7,1.1,3.7,2c1.1,0.8,2,1.8,2.6,3s1,2.4,0.9,3.7c0,0.3,0,0.8,0,1.4s0,1.2,0,1.9s0,1.4,0,2.1c0,0.7,0,1.4,0,1.9
		c0,0.6,0,1.2,0,1.9H453.5z"/>
	<path fill="#1F88C9" d="M480,351.3V342c0-0.6-0.1-1.2-0.4-1.7s-0.7-0.9-1.2-1.3c-0.5-0.4-1.1-0.7-1.9-1c-0.7-0.3-1.5-0.4-2.4-0.5
		c-0.2,0-0.5,0-0.8-0.1c-0.3,0-0.5,0-0.8,0c-0.6,0-1.2,0-1.8,0.1c-0.6,0-1.1,0.1-1.6,0.2v13.6h-6.5v-17.4l2.2-0.6c0,0,0.3,0,0.7-0.1
		c0.4-0.1,1-0.2,1.6-0.3c0.7-0.1,1.5-0.2,2.4-0.3c0.9-0.1,1.9-0.1,3-0.1c0.3,0,0.7,0,1,0c0.3,0,0.7,0,1.1,0.1c1.6,0.1,3,0.4,4.5,0.9
		c1.4,0.5,2.7,1.1,3.7,2c1.1,0.8,2,1.8,2.6,3s1,2.4,0.9,3.7c0,0.3,0,0.8,0,1.4s0,1.2,0,1.9s0,1.4,0,2.1c0,0.7,0,1.4,0,1.9
		c0,0.6,0,1.2,0,1.9H480z"/>
	<path fill="#1F88C9" d="M502,346.5c0.8,0,1.5,0,2.2-0.1c0.7-0.1,1.5-0.2,2.4-0.3l1.3,5c-1,0.2-2,0.3-2.9,0.4
		c-0.9,0.1-1.9,0.1-3,0.1c-0.3,0-0.7,0-1,0c-0.4,0-0.7,0-1-0.1c-1.6-0.1-3.1-0.4-4.5-0.9c-1.4-0.5-2.7-1.1-3.7-2
		c-1.1-0.8-2-1.8-2.6-3s-1-2.4-0.9-3.7c0-1.3,0.3-2.5,0.9-3.7s1.4-2.2,2.5-3c1.1-0.9,2.3-1.6,3.8-2.1s3-0.8,4.7-0.8h0.5
		c1.6,0,3,0.3,4.3,0.8s2.4,1.1,3.3,1.9c0.9,0.8,1.6,1.6,2.1,2.5c0.5,0.9,0.8,1.9,0.8,2.9c0,0.5,0,0.9-0.1,1.3
		c-0.1,0.4-0.2,0.7-0.3,1c-0.1,0.3-0.3,0.6-0.5,0.9h-14.9c0.3,0.4,0.7,0.8,1.1,1.1c0.5,0.4,1.1,0.7,1.9,1c0.7,0.3,1.5,0.4,2.4,0.5
		c0.2,0,0.5,0,0.8,0.1C501.5,346.5,501.8,346.5,502,346.5z M496.2,338.7c-0.2,0.1-0.3,0.3-0.5,0.5c-0.1,0.2-0.3,0.4-0.4,0.8h9
		c-0.1-0.3-0.2-0.6-0.4-0.8c-0.2-0.2-0.3-0.4-0.5-0.6c-0.4-0.3-0.9-0.6-1.4-0.8c-0.5-0.2-1.1-0.3-1.8-0.3h0h0c0,0,0,0-0.1,0
		C498.5,337.5,497.2,337.9,496.2,338.7z"/>
	<path fill="#1F88C9" d="M513,351.3v-17.4l2.2-0.6c0.1,0,0.3,0,0.7-0.1s0.9-0.2,1.6-0.3c0.7-0.1,1.5-0.2,2.4-0.3
		c0.9-0.1,1.9-0.1,3-0.1c0.3,0,0.6,0,0.9,0c0.3,0,0.6,0,1,0.1c0.9,0,1.6,0.1,2.1,0.2c0.5,0.1,0.7,0.1,0.9,0.1l-1.2,3.4l-0.5,1.5
		c0,0,0,0,0,0c-0.1,0-0.2,0-0.2,0c-0.3,0-0.9-0.1-1.6-0.1c-0.2,0-0.5,0-0.7-0.1s-0.5,0-0.7,0c-0.7,0-1.3,0-1.9,0.1
		c-0.6,0-1.1,0.1-1.6,0.2v13.6H513z"/>
</g>
</svg>
